<?xml version="1.0" encoding="UTF-8"?>
<svg xmlns="http://www.w3.org/2000/svg" xmlns:xlink="http://www.w3.org/1999/xlink" width="1000px" height="1000px" viewBox="0 0 1000 1000" version="1.1">
<g id="surface1">
<path style=" stroke:none;fill-rule:nonzero;fill:rgb(83.137256%,68.627453%,21.568628%);fill-opacity:1;" d="M 365.273438 163.988281 C 382.253906 173.441406 398.402344 183.660156 415.253906 192.335938 C 417.355469 190.089844 416.726562 188.035156 416.734375 186.175781 C 416.789062 166.324219 416.917969 146.46875 416.699219 126.617188 C 416.632812 120.332031 419.03125 116.347656 424.488281 113.269531 C 447.707031 100.167969 470.816406 86.875 493.851562 73.449219 C 498.609375 70.679688 502.707031 70.503906 507.492188 73.3125 C 531.171875 87.226562 554.933594 101.007812 578.75 114.683594 C 582.792969 117.003906 584.398438 120.113281 584.398438 124.605469 C 584.390625 144.605469 584.496094 164.605469 584.570312 184.609375 C 584.574219 185.417969 584.679688 186.230469 584.75 187.039062 C 585.222656 192.777344 585.9375 193.082031 590.769531 190.289062 C 608.503906 180.03125 626.339844 169.957031 644 159.574219 C 648.496094 156.929688 652.449219 157.023438 656.78125 159.539062 C 680.675781 173.417969 704.585938 187.277344 728.539062 201.058594 C 732.683594 203.445312 734.464844 206.992188 734.46875 211.515625 C 734.507812 239.179688 734.476562 266.84375 734.464844 294.507812 C 734.460938 299.367188 732.144531 302.675781 727.933594 305.101562 C 710.039062 315.410156 692.222656 325.855469 674.394531 336.277344 C 673.054688 337.0625 671.28125 337.460938 670.851562 339.980469 C 679.367188 345.816406 688.71875 350.683594 697.800781 355.96875 C 707.78125 361.773438 717.820312 367.484375 727.835938 373.226562 C 732.507812 375.90625 734.589844 379.890625 734.566406 385.300781 C 734.46875 412.148438 734.445312 439 734.496094 465.851562 C 734.507812 471.394531 732.574219 475.238281 727.503906 478.117188 C 703.46875 491.765625 679.601562 505.714844 655.667969 519.542969 C 651.917969 521.707031 648.328125 521.324219 644.605469 519.167969 C 626.734375 508.820312 608.800781 498.578125 590.878906 488.320312 C 589.367188 487.453125 588.035156 486.121094 585.644531 486.230469 C 584.132812 490.5 584.609375 495.113281 584.703125 499.480469 C 585.085938 517.855469 584.554688 536.210938 584.398438 554.578125 C 584.363281 558.8125 582.675781 561.691406 579.125 563.730469 C 555.296875 577.414062 531.449219 591.070312 507.671875 604.839844 C 503.011719 607.539062 498.800781 607.816406 493.976562 605.007812 C 470.238281 591.171875 446.394531 577.515625 422.554688 563.851562 C 417.972656 561.226562 416.890625 557.164062 416.90625 552.292969 C 416.960938 532.601562 416.914062 512.910156 416.84375 493.21875 C 416.835938 491.003906 417.332031 488.671875 415.632812 485.847656 C 409.882812 489.019531 404.105469 492.105469 398.421875 495.351562 C 384.730469 503.183594 371.042969 511.03125 357.429688 519.003906 C 353.199219 521.480469 349.347656 521.515625 345.074219 519.027344 C 321.46875 505.277344 297.832031 491.582031 274.101562 478.042969 C 269.308594 475.308594 267.242188 471.730469 267.265625 466.21875 C 267.394531 439.042969 267.371094 411.863281 267.222656 384.6875 C 267.191406 379.398438 269.0625 375.824219 273.71875 373.179688 C 291.386719 363.144531 308.929688 352.894531 326.523438 342.734375 C 327.914062 341.929688 329.5 341.386719 330.429688 339.542969 C 329.53125 337.140625 327.050781 336.339844 325.066406 335.167969 C 308.132812 325.160156 291.207031 315.132812 274.125 305.382812 C 269.3125 302.632812 267.230469 299.09375 267.257812 293.589844 C 267.382812 266.414062 267.363281 239.238281 267.246094 212.0625 C 267.226562 206.839844 268.902344 203.097656 273.585938 200.421875 C 296.457031 187.367188 319.347656 174.339844 341.984375 160.882812 C 348.355469 157.097656 353.894531 156.363281 359.9375 160.816406 C 361.496094 161.96875 363.285156 162.8125 365.273438 163.988281 M 457.667969 152.269531 C 450.6875 148.230469 443.972656 143.691406 436.261719 140.339844 C 434.78125 144.570312 434.941406 148.453125 434.957031 152.300781 C 435.050781 172.957031 435.671875 193.625 435.160156 214.265625 C 434.570312 238.019531 436.09375 261.746094 435.292969 285.480469 C 435.152344 289.589844 437.03125 291.894531 440.550781 293.878906 C 455.824219 302.496094 470.953125 311.367188 486.109375 320.1875 C 490.308594 322.628906 491.746094 321.859375 491.75 316.566406 C 491.796875 270.035156 491.765625 223.503906 491.808594 176.972656 C 491.8125 173.722656 490.691406 171.46875 487.789062 169.808594 C 477.90625 164.167969 468.117188 158.367188 457.667969 152.269531 M 534.007812 434.207031 C 569.355469 454.566406 604.703125 474.925781 639.988281 495.246094 C 641.683594 492.71875 641.285156 491.046875 641.289062 489.457031 C 641.316406 474.8125 641.304688 460.164062 641.304688 445.519531 C 641.300781 430.683594 641.238281 430.792969 628.503906 423.480469 C 591.136719 402.019531 553.832031 380.449219 516.480469 358.96875 C 514.734375 357.964844 513.191406 356.210938 510.957031 356.636719 C 509.871094 357.421875 509.957031 358.445312 509.957031 359.402344 C 509.964844 378.441406 510.015625 397.480469 509.976562 416.519531 C 509.972656 419.328125 511.222656 421.007812 513.566406 422.339844 C 520.210938 426.113281 526.78125 430.019531 534.007812 434.207031 M 509.886719 189.941406 C 509.90625 232.210938 509.925781 274.480469 509.960938 316.75 C 509.960938 318.324219 509.347656 320.238281 510.960938 321.269531 C 512.898438 322.507812 514.265625 320.640625 515.722656 319.800781 C 530.636719 311.207031 545.398438 302.339844 560.496094 294.078125 C 564.832031 291.703125 566.460938 289.191406 566.445312 284.296875 C 566.285156 237.964844 566.367188 191.632812 566.351562 145.300781 C 566.351562 143.742188 566.800781 142.039062 565.414062 140.628906 C 563.375 140.621094 561.785156 141.839844 560.148438 142.78125 C 546.351562 150.71875 532.738281 158.996094 518.738281 166.558594 C 512.339844 170.015625 508.445312 173.941406 509.835938 181.664062 C 510.261719 184.023438 509.894531 186.527344 509.886719 189.941406 M 410.453125 402.222656 C 394.960938 411.140625 379.5 420.117188 363.941406 428.917969 C 361.242188 430.445312 360.53125 432.40625 360.539062 435.265625 C 360.605469 453.324219 360.546875 471.386719 360.589844 489.449219 C 360.59375 491.144531 360.035156 493.078125 361.675781 494.40625 C 363.011719 494.707031 363.902344 493.914062 364.875 493.355469 C 405.839844 469.703125 446.796875 446.035156 487.792969 422.441406 C 490.753906 420.738281 491.753906 418.265625 491.757812 415.175781 C 491.785156 397.113281 491.828125 379.050781 491.730469 360.988281 C 491.707031 356.683594 490.347656 355.980469 486.648438 358.113281 C 461.4375 372.664062 436.253906 387.261719 410.453125 402.222656 M 618.199219 331.566406 C 605.542969 324.238281 592.800781 317.046875 580.273438 309.496094 C 576.660156 307.316406 573.960938 307.589844 570.472656 309.648438 C 555.074219 318.742188 539.519531 327.570312 524.03125 336.511719 C 522.808594 337.21875 521.265625 337.664062 521.097656 339.480469 C 521.632812 341.050781 523.148438 341.449219 524.386719 342.160156 C 542.414062 352.523438 560.472656 362.832031 578.476562 373.242188 C 601.261719 386.414062 624.019531 399.636719 646.730469 412.9375 C 649.253906 414.417969 651.171875 414.664062 653.832031 413.085938 C 664.734375 406.617188 675.816406 400.453125 686.785156 394.097656 C 693.03125 390.476562 699.191406 386.699219 706.519531 382.316406 C 676.523438 365.074219 647.675781 348.496094 618.199219 331.566406 M 388.710938 393.054688 C 419.460938 375.382812 450.210938 357.710938 481.457031 339.757812 C 480.050781 338.472656 479.542969 337.824219 478.882812 337.4375 C 462.164062 327.726562 445.410156 318.070312 428.71875 308.308594 C 426.355469 306.925781 424.539062 307.492188 422.425781 308.75 C 412.9375 314.402344 403.414062 320.007812 393.84375 325.523438 C 364.277344 342.558594 334.648438 359.484375 305.152344 376.640625 C 302.246094 378.332031 298.511719 379.203125 296.535156 382.734375 C 297.605469 383.582031 298.40625 384.394531 299.359375 384.949219 C 315.78125 394.492188 332.246094 403.972656 348.636719 413.578125 C 350.6875 414.78125 352.171875 414.386719 353.996094 413.3125 C 365.332031 406.632812 376.710938 400.027344 388.710938 393.054688 M 491.855469 574.386719 C 491.855469 530.769531 491.855469 487.152344 491.855469 443.320312 C 489.929688 443.507812 489.386719 443.417969 488.996094 443.621094 C 471.515625 452.652344 454.828125 463.082031 437.746094 472.820312 C 435.664062 474.003906 435.199219 475.78125 435.207031 478.148438 C 435.242188 491.949219 435.070312 505.746094 435.003906 519.546875 C 434.960938 527.839844 434.886719 536.136719 435.023438 544.429688 C 435.070312 547.316406 435.421875 550.074219 438.585938 551.871094 C 451.734375 559.320312 464.660156 567.15625 477.855469 574.515625 C 482.007812 576.832031 485.769531 580.144531 490.789062 581.054688 C 492.1875 579.152344 491.75 577.152344 491.855469 574.386719 M 548.386719 463.867188 C 535.976562 456.714844 523.5625 449.5625 510.46875 442.015625 C 510.46875 489.285156 510.46875 535.132812 510.46875 580.9375 C 512.882812 581.136719 514.289062 580.171875 515.652344 579.378906 C 531.675781 570.054688 547.644531 560.640625 563.671875 551.324219 C 566.050781 549.941406 566.347656 547.90625 566.347656 545.527344 C 566.324219 523.390625 566.257812 501.257812 566.402344 479.121094 C 566.425781 475.320312 564.941406 473.105469 561.734375 471.417969 C 557.421875 469.148438 553.253906 466.601562 548.386719 463.867188 M 373.46875 276.5 C 346.191406 260.675781 318.917969 244.847656 291.636719 229.027344 C 286.507812 226.050781 285.480469 226.605469 285.472656 232.46875 C 285.449219 249.875 285.582031 267.285156 285.378906 284.6875 C 285.328125 288.984375 286.796875 291.550781 290.519531 293.65625 C 310.027344 304.691406 329.441406 315.886719 348.808594 327.167969 C 350.957031 328.417969 352.316406 327.804688 354.101562 326.773438 C 367.1875 319.214844 380.371094 311.816406 393.402344 304.167969 C 397.542969 301.738281 402.046875 299.777344 406.292969 295.648438 C 395.296875 289.203125 384.710938 282.996094 373.46875 276.5 M 389.460938 264.300781 C 398.128906 269.238281 406.792969 274.171875 415.117188 278.914062 C 416.804688 277.800781 416.71875 276.761719 416.71875 275.8125 C 416.722656 256.792969 416.683594 237.769531 416.726562 218.75 C 416.730469 215.679688 415.042969 214.1875 412.601562 212.777344 C 393.464844 201.746094 374.367188 190.65625 355.324219 179.46875 C 352.460938 177.785156 350.105469 177.695312 347.207031 179.410156 C 336.167969 185.953125 324.957031 192.203125 313.921875 198.75 C 308.128906 202.191406 301.933594 205.03125 295.605469 209.941406 C 327.207031 228.238281 358.023438 246.085938 389.460938 264.300781 M 666.066406 186.03125 C 662.25 183.859375 658.378906 181.785156 654.636719 179.488281 C 651.664062 177.667969 649.140625 177.832031 646.066406 179.640625 C 627.011719 190.828125 607.867188 201.871094 588.671875 212.8125 C 585.550781 214.589844 584.613281 216.671875 584.664062 220.257812 C 584.878906 236.5 584.710938 252.746094 584.6875 268.992188 C 584.683594 272.179688 584.445312 275.402344 586.078125 279.273438 C 625.910156 256.289062 665.429688 233.476562 704.953125 210.667969 C 705.003906 210.046875 705.054688 209.425781 705.105469 208.808594 C 692.292969 201.347656 679.476562 193.886719 666.066406 186.03125 M 598.816406 293.582031 C 597.832031 294.511719 596.023438 294.828125 596.46875 297.324219 C 613.914062 307.390625 631.632812 317.597656 649.332031 327.851562 C 650.5625 328.566406 651.394531 328.121094 652.4375 327.515625 C 672.539062 315.855469 692.648438 304.207031 712.792969 292.625 C 715.359375 291.148438 716.324219 289.195312 716.292969 286.257812 C 716.078125 267.398438 715.996094 248.535156 715.84375 229.675781 C 715.835938 228.597656 716.085938 227.320312 714.378906 226.675781 C 713.417969 227.179688 712.261719 227.734375 711.15625 228.378906 C 696.121094 237.109375 681.101562 245.867188 666.058594 254.589844 C 643.84375 267.46875 621.617188 280.332031 598.816406 293.582031 M 508.40625 151.441406 C 524.039062 142.128906 540.171875 133.628906 555.753906 123.617188 C 554.703125 122.414062 554.375 121.785156 553.859375 121.484375 C 536.839844 111.660156 519.785156 101.890625 502.785156 92.03125 C 500.65625 90.796875 499.1875 91.699219 497.4375 92.707031 C 481.53125 101.867188 465.59375 110.964844 449.671875 120.097656 C 448.292969 120.890625 446.734375 121.5625 446.285156 123.382812 C 446.703125 124.816406 447.96875 125.261719 449.082031 125.902344 C 463.996094 134.511719 479.03125 142.914062 493.730469 151.871094 C 498.832031 154.976562 503.105469 155.734375 508.40625 151.441406 M 705.050781 404.785156 C 692.398438 412.113281 679.910156 419.738281 667.023438 426.628906 C 661.496094 429.582031 659.449219 433.351562 659.519531 439.339844 C 659.710938 456.082031 659.554688 472.828125 659.589844 489.570312 C 659.59375 491.25 659.066406 493.226562 661.070312 494.324219 C 662.875 494.394531 664.15625 493.285156 665.535156 492.488281 C 680.167969 484.050781 694.59375 475.234375 709.5 467.320312 C 715.148438 464.328125 716.648438 460.359375 716.339844 454.871094 C 715.398438 438.140625 716.113281 421.394531 715.796875 404.660156 C 715.765625 403.101562 716.242188 401.371094 714.5 399.945312 C 711.238281 400.636719 708.660156 402.957031 705.050781 404.785156 M 285.550781 460.585938 C 285.898438 463.527344 287.96875 464.945312 290.320312 466.292969 C 300.324219 472.027344 310.128906 478.121094 320.285156 483.5625 C 327.0625 487.195312 333.265625 492.015625 340.492188 494.371094 C 341.757812 493.425781 341.71875 492.394531 341.71875 491.449219 C 341.710938 472.433594 341.632812 453.417969 341.695312 434.402344 C 341.703125 431.25 339.90625 429.789062 337.542969 428.429688 C 324.59375 420.980469 311.671875 413.480469 298.730469 406.015625 C 295.003906 403.863281 291.242188 401.773438 286.378906 399.019531 C 284.691406 419.996094 285.789062 439.898438 285.550781 460.585938 Z M 285.550781 460.585938 "/>
</g>
</svg>
