<?xml version="1.0" standalone="no"?>
<!DOCTYPE svg PUBLIC "-//W3C//DTD SVG 20010904//EN"
 "http://www.w3.org/TR/2001/REC-SVG-20010904/DTD/svg10.dtd">
<svg version="1.0" xmlns="http://www.w3.org/2000/svg"
 width="526.000000pt" height="463.000000pt" viewBox="0 0 526.000000 463.000000"
 preserveAspectRatio="xMidYMid meet">

<g transform="translate(0.000000,463.000000) scale(0.100000,-0.100000)"
fill="#000000" stroke="none">
<path d="M1702 3733 c-148 -254 -762 -1317 -762 -1320 0 -2 94 -3 208 -3 l209
0 309 535 c170 294 311 535 314 535 3 0 39 -60 82 -133 42 -72 193 -334 337
-582 l260 -449 -31 -56 c-17 -30 -54 -93 -82 -140 l-51 -85 -167 -3 -167 -2
-56 95 -56 95 -109 0 c-61 0 -110 -3 -110 -6 0 -3 23 -43 50 -90 28 -47 50
-87 50 -89 0 -3 -49 -5 -109 -5 l-109 0 -54 93 -53 92 -108 3 c-67 2 -107 -1
-107 -7 0 -6 20 -45 45 -87 25 -41 45 -80 45 -85 0 -5 -47 -9 -104 -9 l-104 0
-54 93 -53 92 -113 3 c-61 1 -112 1 -112 -1 0 -4 628 -1093 746 -1294 l55 -93
238 0 239 0 165 282 c457 787 690 1193 690 1203 0 10 -233 416 -690 1203
l-165 282 -239 0 -238 0 -39 -67z"/>
<path d="M2438 3768 c88 -146 835 -1445 835 -1453 0 -8 -747 -1307 -835 -1453
l-20 -32 212 2 212 3 420 725 c231 399 423 732 428 740 6 11 -115 228 -420
755 l-428 740 -212 3 -212 2 20 -32z"/>
<path d="M3053 3787 c2 -6 194 -340 427 -742 409 -707 421 -730 407 -755 -257
-443 -831 -1438 -834 -1447 -4 -10 40 -13 203 -13 l209 1 81 142 c45 78 238
411 428 740 190 330 346 600 346 602 0 2 -156 272 -346 602 -190 329 -383 662
-428 740 l-81 142 -209 1 c-163 0 -207 -3 -203 -13z"/>
</g>
</svg>
